<?xml version="1.0" standalone="no"?>
<!DOCTYPE svg PUBLIC "-//W3C//DTD SVG 20010904//EN"
 "http://www.w3.org/TR/2001/REC-SVG-20010904/DTD/svg10.dtd">
<svg version="1.0" xmlns="http://www.w3.org/2000/svg"
 width="700.000000pt" height="292.000000pt" viewBox="0 0 700.000000 292.000000"
 preserveAspectRatio="xMidYMid meet">

<g transform="translate(0.000000,292.000000) scale(0.100000,-0.100000)"
fill="#000000" stroke="none">
<path d="M1894 2292 c-22 -15 -35 -51 -25 -71 17 -31 83 -83 139 -108 122 -56
255 -54 377 6 77 38 139 102 129 134 -16 55 -68 61 -125 16 -116 -91 -282 -91
-398 0 -37 30 -74 39 -97 23z"/>
<path d="M1620 2170 c-34 -34 -24 -56 66 -152 47 -49 103 -117 124 -149 86
-134 131 -291 129 -456 -2 -153 -1 -150 -93 -184 -44 -16 -81 -29 -81 -29 -1
0 4 24 12 53 22 85 26 194 10 282 -29 158 -87 266 -211 392 -82 83 -111 92
-149 42 -25 -34 -17 -50 79 -151 117 -123 164 -239 165 -404 0 -164 -65 -308
-200 -439 -55 -53 -65 -89 -35 -119 32 -32 62 -19 148 63 183 176 367 252 607
252 154 0 152 1 185 -89 16 -42 30 -79 32 -83 1 -3 -21 0 -50 8 -76 21 -257
21 -338 0 -120 -32 -221 -90 -320 -184 -96 -91 -110 -122 -72 -156 34 -31 58
-20 149 66 164 153 336 205 536 162 107 -23 191 -69 289 -162 69 -66 93 -83
117 -83 32 0 61 30 61 63 0 10 -38 58 -84 106 -179 186 -257 373 -255 608 1
140 1 139 89 174 88 34 94 35 81 12 -18 -35 -33 -178 -27 -251 15 -165 80
-304 204 -434 73 -76 89 -88 118 -88 33 0 64 28 64 57 0 7 -36 52 -80 99 -129
141 -180 260 -180 419 0 170 46 278 178 417 86 92 96 114 62 148 -37 37 -64
26 -157 -61 -184 -174 -363 -249 -594 -249 -150 0 -166 4 -180 49 -6 20 -20
53 -31 74 -11 22 -18 40 -16 42 2 2 32 -3 68 -12 105 -24 273 -14 381 24 108
37 204 101 292 191 71 75 80 99 47 132 -37 37 -64 26 -159 -63 -101 -95 -179
-138 -294 -161 -96 -20 -138 -20 -234 0 -122 25 -248 100 -352 208 -40 41 -71
46 -101 16z m696 -755 l1 -130 -127 3 -126 3 0 127 0 127 126 0 126 0 0 -130z"/>
<path d="M3482 1868 c-12 -6 -25 -21 -28 -32 -2 -12 -3 -196 -2 -410 l3 -389
28 -20 27 -21 28 21 27 20 3 401 2 401 -22 21 c-24 22 -33 23 -66 8z"/>
<path d="M5104 1855 c-19 -19 -23 -31 -18 -48 4 -12 53 -90 110 -174 57 -83
104 -155 104 -161 0 -5 -56 -95 -125 -201 -69 -105 -125 -199 -125 -209 1 -39
46 -68 82 -51 14 6 68 82 133 184 83 131 113 171 121 162 6 -7 57 -86 114
-175 106 -168 131 -193 170 -172 26 14 41 45 33 67 -4 10 -62 103 -130 206
l-123 188 110 163 c60 89 110 172 110 184 0 24 -32 62 -53 62 -27 0 -57 -34
-147 -170 l-93 -141 -97 149 c-113 173 -128 185 -176 137z"/>
<path d="M3737 1852 c-16 -17 -17 -51 -15 -417 l3 -398 28 -20 27 -21 28 21
27 20 3 147 3 147 56 -3 56 -3 103 -149 c115 -166 111 -161 141 -170 32 -10
77 35 67 67 -4 12 -44 75 -90 139 -46 64 -84 119 -84 122 0 3 10 6 23 6 71 1
156 78 182 164 42 139 -8 280 -119 339 -37 20 -58 22 -231 25 -177 3 -192 2
-208 -16z m373 -110 c94 -47 102 -221 13 -279 -21 -14 -54 -19 -155 -22 l-128
-3 0 161 0 161 118 0 c91 0 125 -4 152 -18z"/>
<path d="M4427 1852 c-15 -17 -17 -60 -17 -415 l0 -396 22 -15 c19 -13 60 -16
249 -16 206 0 227 2 242 18 22 24 21 55 -1 75 -16 15 -46 17 -205 17 l-187 0
0 130 0 130 158 0 c141 0 161 2 175 18 22 25 21 48 -3 72 -18 18 -33 20 -175
20 l-155 0 0 135 0 135 184 0 c180 0 185 1 200 22 21 30 20 44 -4 68 -19 19
-33 20 -243 20 -204 0 -225 -2 -240 -18z"/>
<path d="M1320 1720 c-28 -28 -25 -53 14 -104 48 -63 71 -130 70 -201 0 -77
-16 -122 -65 -187 -43 -58 -48 -86 -21 -111 32 -29 66 -21 107 24 139 154 138
410 -3 558 -43 46 -72 51 -102 21z"/>
<path d="M2965 1709 c-19 -17 -52 -65 -72 -107 -37 -73 -38 -80 -38 -181 0
-98 2 -111 31 -172 60 -126 133 -180 177 -131 25 27 21 55 -14 98 -100 123
-99 278 1 404 35 44 38 72 10 100 -28 28 -54 25 -95 -11z"/>
<path d="M2050 737 c-73 -25 -166 -87 -175 -118 -10 -32 2 -64 28 -76 26 -12
28 -12 112 45 60 39 102 52 175 52 73 0 115 -13 175 -52 86 -58 88 -59 109
-44 56 37 46 81 -31 136 -111 79 -263 102 -393 57z"/>
</g>
</svg>
